<?xml version="1.0" encoding="UTF-8"?>
<svg xmlns="http://www.w3.org/2000/svg" width="2400" height="1840" viewBox="0 0 2400 1840" role="img" aria-labelledby="title description">
  <title id="title">Unified Beryl thread navigation concept</title>
  <desc id="description">An exploratory design board showing merged thread toolbar chrome, a conditional branch-lineage strip, and one shared thread palette in open-existing, new-elsewhere, and rebind-current modes.</desc>

  <defs>
    <filter id="shadow" x="-20%" y="-20%" width="140%" height="160%">
      <feDropShadow dx="0" dy="14" stdDeviation="18" flood-color="#000000" flood-opacity="0.55"/>
    </filter>
    <filter id="soft-shadow" x="-20%" y="-20%" width="140%" height="150%">
      <feDropShadow dx="0" dy="7" stdDeviation="10" flood-color="#000000" flood-opacity="0.38"/>
    </filter>
    <linearGradient id="board" x1="0" y1="0" x2="0" y2="1">
      <stop offset="0" stop-color="#090d16"/>
      <stop offset="1" stop-color="#030407"/>
    </linearGradient>
    <linearGradient id="accent-button" x1="0" y1="0" x2="0" y2="1">
      <stop offset="0" stop-color="#1f5876"/>
      <stop offset="1" stop-color="#173a5e"/>
    </linearGradient>
    <style>
      text { font-family: Roboto, "Segoe UI", Arial, sans-serif; }
      .board-title { fill: #f3f7fb; font-size: 34px; font-weight: 650; letter-spacing: -0.5px; }
      .board-subtitle { fill: #92a2b7; font-size: 16px; }
      .tag { fill: #7dd3fc; font-size: 12px; font-weight: 700; letter-spacing: 1.4px; }
      .card { fill: #0a0e16; stroke: #253148; stroke-width: 1; }
      .card-title { fill: #f3f7fb; font-size: 21px; font-weight: 650; }
      .card-kicker { fill: #7dd3fc; font-size: 11px; font-weight: 700; letter-spacing: 1.2px; }
      .shell { fill: #000000; stroke: #171717; stroke-width: 1; }
      .toolbar { fill: #05070b; stroke: #202735; stroke-width: 1; }
      .lineage { fill: #0d1421; stroke: #28364b; stroke-width: 1; }
      .transcript { fill: #070a0f; }
      .button { fill: #1e293b; stroke: #475569; stroke-width: 1; }
      .button-accent { fill: url(#accent-button); stroke: #38bdf8; stroke-width: 1; }
      .button-subtle { fill: #111827; stroke: #334155; stroke-width: 1; }
      .button-label { fill: #f3f7fb; font-size: 13px; font-weight: 550; }
      .button-label-small { fill: #dbe7f4; font-size: 12px; font-weight: 550; }
      .flyout { fill: #101827; stroke: #3a4860; stroke-width: 1.25; }
      .flyout-title { fill: #f3f7fb; font-size: 19px; font-weight: 650; }
      .flyout-subtitle { fill: #92a2b7; font-size: 12px; }
      .section-label { fill: #7f8ea3; font-size: 11px; font-weight: 700; letter-spacing: 1.1px; }
      .label { fill: #e9eef5; font-size: 14px; font-weight: 520; }
      .small-label { fill: #e9eef5; font-size: 13px; font-weight: 520; }
      .muted { fill: #92a2b7; font-size: 12px; }
      .micro { fill: #7f8ea3; font-size: 11px; }
      .accent-text { fill: #7dd3fc; font-size: 12px; font-weight: 600; }
      .row { fill: #111827; stroke: #2f3b52; stroke-width: 1; }
      .row-selected { fill: #173a5e; stroke: #38bdf8; stroke-width: 1; }
      .row-current { fill: #131b29; stroke: #3b475d; stroke-width: 1; }
      .row-open { fill: #141b2a; stroke: #2b3547; stroke-width: 1; }
      .field { fill: #0f172a; stroke: #334155; stroke-width: 1; }
      .divider { stroke: #2a3549; stroke-width: 1; }
      .icon-ring { fill: #142337; stroke: #40516b; stroke-width: 1; }
      .icon-ring-selected { fill: #164e63; stroke: #22d3ee; stroke-width: 1; }
      .pill { fill: #12283b; stroke: #38bdf8; stroke-width: 1; }
      .pill-text { fill: #bae6fd; font-size: 10px; font-weight: 650; }
      .note-title { fill: #dbe7f4; font-size: 13px; font-weight: 650; }
      .note { fill: #92a2b7; font-size: 12px; }
      .mode-open { fill: #12283b; stroke: #38bdf8; stroke-width: 1; }
      .mode-new { fill: #103022; stroke: #22c55e; stroke-width: 1; }
      .mode-rebind { fill: #34260f; stroke: #f59e0b; stroke-width: 1; }
      .flow-band { fill: #0c121f; stroke: #253148; stroke-width: 1; }
    </style>
  </defs>

  <rect width="2400" height="1840" fill="url(#board)"/>
  <circle cx="2150" cy="-180" r="500" fill="#0d2a40" opacity="0.34"/>
  <circle cx="140" cy="1800" r="390" fill="#102038" opacity="0.25"/>

  <text x="48" y="58" class="board-title">One Thread Palette · three explicit intents</text>
  <text x="48" y="90" class="board-subtitle">The selected thread owns runtime/root. The window never switches location independently of opening, creating, or rebinding a thread.</text>
  <rect x="2046" y="38" width="306" height="34" rx="17" fill="#0c1c2b" stroke="#285270"/>
  <text x="2199" y="60" text-anchor="middle" class="tag">EXPLORATORY · NOT AUTHORITY</text>

  <!-- Top-level shell -->
  <rect x="40" y="126" width="1140" height="286" rx="16" class="card"/>
  <text x="68" y="160" class="card-kicker">TOP-LEVEL THREAD</text>
  <text x="68" y="188" class="card-title">One persistent toolbar row</text>
  <rect x="68" y="208" width="1084" height="174" rx="9" class="shell"/>
  <rect x="68" y="208" width="1084" height="58" rx="9" class="toolbar"/>
  <rect x="86" y="220" width="112" height="34" rx="6" class="button"/>
  <text x="142" y="242" text-anchor="middle" class="button-label">New Thread</text>
  <rect x="198" y="220" width="40" height="34" rx="6" class="button-accent"/>
  <text x="218" y="240" text-anchor="middle" class="button-label">•••</text>
  <rect x="252" y="220" width="34" height="34" rx="6" class="button-subtle"/>
  <text x="269" y="242" text-anchor="middle" class="button-label">‹</text>
  <rect x="292" y="220" width="34" height="34" rx="6" class="button-subtle"/>
  <text x="309" y="242" text-anchor="middle" class="button-label">›</text>
  <rect x="340" y="220" width="554" height="34" rx="6" class="button"/>
  <text x="360" y="242" class="button-label">Beryl redesign</text>
  <text x="874" y="242" text-anchor="end" class="accent-text">THREADS  ▾</text>
  <rect x="978" y="220" width="70" height="34" rx="6" class="button-subtle"/>
  <text x="1013" y="242" text-anchor="middle" class="button-label-small">Exit</text>
  <rect x="1056" y="220" width="78" height="34" rx="6" class="button-subtle"/>
  <text x="1095" y="242" text-anchor="middle" class="button-label-small">Settings</text>
  <rect x="84" y="282" width="1052" height="78" rx="7" class="transcript"/>
  <rect x="108" y="300" width="520" height="8" rx="4" fill="#171d28"/>
  <rect x="108" y="319" width="824" height="8" rx="4" fill="#111722"/>
  <rect x="108" y="338" width="690" height="8" rx="4" fill="#111722"/>
  <text x="1132" y="396" text-anchor="end" class="micro">No lineage strip and no reserved empty height.</text>

  <!-- Branch shell -->
  <rect x="1220" y="126" width="1140" height="286" rx="16" class="card"/>
  <text x="1248" y="160" class="card-kicker">NON-ROOT THREAD</text>
  <text x="1248" y="188" class="card-title">The same toolbar plus a conditional lineage strip</text>
  <rect x="1248" y="208" width="1084" height="174" rx="9" class="shell"/>
  <rect x="1248" y="208" width="1084" height="58" rx="9" class="toolbar"/>
  <rect x="1266" y="220" width="112" height="34" rx="6" class="button"/>
  <text x="1322" y="242" text-anchor="middle" class="button-label">New Thread</text>
  <rect x="1378" y="220" width="40" height="34" rx="6" class="button-accent"/>
  <text x="1398" y="240" text-anchor="middle" class="button-label">•••</text>
  <rect x="1432" y="220" width="34" height="34" rx="6" class="button-subtle"/>
  <text x="1449" y="242" text-anchor="middle" class="button-label">‹</text>
  <rect x="1472" y="220" width="34" height="34" rx="6" class="button-subtle"/>
  <text x="1489" y="242" text-anchor="middle" class="button-label">›</text>
  <rect x="1520" y="220" width="554" height="34" rx="6" class="button"/>
  <text x="1540" y="242" class="button-label">Unifying thread navigation</text>
  <text x="2054" y="242" text-anchor="end" class="accent-text">THREADS  ▾</text>
  <rect x="2158" y="220" width="70" height="34" rx="6" class="button-subtle"/>
  <text x="2193" y="242" text-anchor="middle" class="button-label-small">Exit</text>
  <rect x="2236" y="220" width="78" height="34" rx="6" class="button-subtle"/>
  <text x="2275" y="242" text-anchor="middle" class="button-label-small">Settings</text>
  <rect x="1248" y="266" width="1084" height="46" class="lineage"/>
  <text x="1270" y="294" class="micro">LINEAGE</text>
  <text x="1340" y="294" class="accent-text">Beryl redesign</text>
  <text x="1432" y="294" class="muted">›</text>
  <text x="1450" y="294" class="accent-text">GUI rework</text>
  <text x="1522" y="294" class="muted">›</text>
  <text x="1540" y="294" class="small-label">Unifying thread navigation</text>
  <rect x="1264" y="326" width="1052" height="34" rx="7" class="transcript"/>
  <rect x="1288" y="339" width="710" height="8" rx="4" fill="#171d28"/>
  <text x="2312" y="396" text-anchor="end" class="micro">Ancestors navigate; current segment is passive. Hidden entirely for top-level threads.</text>

  <text x="40" y="470" class="card-kicker">THE SAME FLYOUT SHELL, OPENED WITH DIFFERENT INTENT</text>

  <!-- Mode A: open existing thread -->
  <rect x="40" y="490" width="746" height="1160" rx="16" class="card"/>
  <rect x="64" y="516" width="116" height="26" rx="13" class="mode-open"/>
  <text x="122" y="534" text-anchor="middle" class="pill-text">OPEN EXISTING</text>
  <text x="64" y="566" class="card-title">Current-title selector</text>

  <rect x="64" y="586" width="698" height="780" rx="10" class="flyout" filter="url(#shadow)"/>
  <text x="90" y="625" class="flyout-title">Switch thread</text>
  <text x="90" y="648" class="flyout-subtitle">Recent-first across every runtime and root.</text>
  <rect x="696" y="606" width="40" height="34" rx="6" class="button-subtle"/>
  <text x="716" y="626" text-anchor="middle" class="button-label">•••</text>
  <text x="682" y="650" text-anchor="end" class="micro">Current thread actions</text>
  <line x1="64" y1="667" x2="762" y2="667" class="divider"/>

  <rect x="90" y="687" width="646" height="42" rx="7" class="field"/>
  <circle cx="114" cy="707" r="8" fill="none" stroke="#7dd3fc" stroke-width="1.6"/>
  <line x1="120" y1="713" x2="127" y2="720" stroke="#7dd3fc" stroke-width="1.6"/>
  <text x="140" y="713" class="muted">Search all threads…</text>
  <rect x="665" y="696" width="53" height="24" rx="5" fill="#151c2a" stroke="#344258"/>
  <text x="691.5" y="712" text-anchor="middle" class="micro">Ctrl F</text>

  <text x="90" y="758" class="section-label">RECENT THREADS</text>
  <rect x="90" y="772" width="646" height="58" rx="7" class="row-current"/>
  <circle cx="116" cy="801" r="12" class="icon-ring-selected"/>
  <text x="116" y="805" text-anchor="middle" class="accent-text">◆</text>
  <text x="140" y="797" class="small-label">Unifying thread navigation</text>
  <text x="140" y="816" class="micro">Windows · …\beryl · current</text>
  <rect x="662" y="790" width="56" height="20" rx="10" class="pill"/>
  <text x="690" y="804" text-anchor="middle" class="pill-text">OPEN</text>

  <rect x="90" y="838" width="646" height="58" rx="7" class="row"/>
  <circle cx="116" cy="867" r="12" class="icon-ring"/>
  <text x="116" y="871" text-anchor="middle" class="accent-text">◆</text>
  <text x="140" y="863" class="small-label">Fjall recovery behavior</text>
  <text x="140" y="882" class="micro">Windows · D:\Research · 18 min ago</text>
  <text x="714" y="873" text-anchor="end" class="accent-text">Open  ›</text>

  <rect x="90" y="904" width="646" height="58" rx="7" class="row-open"/>
  <circle cx="116" cy="933" r="12" class="icon-ring"/>
  <text x="116" y="937" text-anchor="middle" class="accent-text">◆</text>
  <text x="140" y="929" class="small-label">Semantic search notes</text>
  <text x="140" y="948" class="micro">Ubuntu 24.04 · ~/code/beryl · open in another window</text>
  <text x="714" y="939" text-anchor="end" class="micro">UNAVAILABLE</text>

  <text x="90" y="990" class="section-label">RUNTIMES &amp; ROOTS</text>
  <rect x="90" y="1004" width="646" height="58" rx="7" class="row"/>
  <circle cx="116" cy="1033" r="12" class="icon-ring-selected"/>
  <path d="M109 1026 h6 v6 h-6 Z M117 1026 h6 v6 h-6 Z M109 1034 h6 v6 h-6 Z M117 1034 h6 v6 h-6 Z" fill="#7dd3fc"/>
  <text x="140" y="1029" class="small-label">Windows</text>
  <text x="140" y="1048" class="micro">3 roots · ready</text>
  <text x="570" y="1039" text-anchor="end" class="accent-text">Browse roots</text>
  <line x1="590" y1="1015" x2="590" y2="1051" class="divider"/>
  <text x="612" y="1039" class="accent-text">＋ Add root</text>

  <rect x="90" y="1070" width="646" height="58" rx="7" class="row"/>
  <circle cx="116" cy="1099" r="12" class="icon-ring"/>
  <text x="116" y="1103" text-anchor="middle" class="accent-text">›_</text>
  <text x="140" y="1095" class="small-label">Ubuntu 24.04</text>
  <text x="140" y="1114" class="micro">2 roots · ready</text>
  <text x="570" y="1105" text-anchor="end" class="accent-text">Browse roots</text>
  <line x1="590" y1="1081" x2="590" y2="1117" class="divider"/>
  <text x="612" y="1105" class="accent-text">＋ Add root</text>

  <rect x="90" y="1138" width="196" height="38" rx="6" class="button"/>
  <text x="110" y="1162" class="accent-text">＋</text>
  <text x="132" y="1162" class="button-label">Add runtime</text>

  <rect x="90" y="1200" width="646" height="134" rx="8" fill="#0c1422" stroke="#2d3a52"/>
  <text x="112" y="1228" class="section-label">OPTIONAL BROWSE PATH</text>
  <text x="112" y="1255" class="accent-text">Recent threads</text>
  <text x="205" y="1255" class="muted">→ Windows roots → Threads in selected root</text>
  <text x="112" y="1281" class="muted">Only the upper results region changes. The runtime section stays put.</text>
  <text x="112" y="1307" class="micro">Thread rows activate immediately; this mode has no Confirm footer.</text>

  <text x="64" y="1410" class="note-title">Why this mode is different</text>
  <text x="64" y="1436" class="note">This is a selector, so an existing-thread row is the action. Runtime/root is</text>
  <text x="64" y="1456" class="note">only an optional catalog scope, never a separately committed window location.</text>
  <text x="64" y="1494" class="note-title">Current-thread actions</text>
  <text x="64" y="1520" class="note">Rename, pin, archive, delete, and Change runtime/root live behind the header</text>
  <text x="64" y="1540" class="note">action menu. Choosing Change runtime/root reopens this palette in rebind mode.</text>
  <rect x="64" y="1580" width="212" height="26" rx="13" class="mode-open"/>
  <text x="170" y="1598" text-anchor="middle" class="pill-text">ROW ACTIVATION COMMITS</text>

  <!-- Mode B: create new thread elsewhere -->
  <rect x="827" y="490" width="746" height="1160" rx="16" class="card"/>
  <rect x="851" y="516" width="126" height="26" rx="13" class="mode-new"/>
  <text x="914" y="534" text-anchor="middle" fill="#bbf7d0" font-size="10" font-weight="650">NEW ELSEWHERE</text>
  <text x="851" y="566" class="card-title">New Thread secondary segment</text>

  <rect x="851" y="586" width="698" height="716" rx="10" class="flyout" filter="url(#shadow)"/>
  <text x="877" y="625" class="flyout-title">New thread</text>
  <text x="877" y="648" class="flyout-subtitle">Select another runtime/root, then confirm.</text>
  <line x1="851" y1="667" x2="1549" y2="667" class="divider"/>

  <rect x="877" y="687" width="646" height="42" rx="7" class="field"/>
  <circle cx="901" cy="707" r="8" fill="none" stroke="#7dd3fc" stroke-width="1.6"/>
  <line x1="907" y1="713" x2="914" y2="720" stroke="#7dd3fc" stroke-width="1.6"/>
  <text x="927" y="713" class="muted">Search roots and runtimes…</text>
  <rect x="1452" y="696" width="53" height="24" rx="5" fill="#151c2a" stroke="#344258"/>
  <text x="1478.5" y="712" text-anchor="middle" class="micro">Ctrl F</text>

  <text x="877" y="758" class="section-label">RECENT TARGETS</text>
  <rect x="877" y="772" width="646" height="58" rx="7" class="row-current"/>
  <circle cx="903" cy="801" r="12" class="icon-ring"/>
  <path d="M894 797 h8 l3 4 h7 v9 h-18 Z" fill="none" stroke="#92a2b7" stroke-width="1.3"/>
  <text x="927" y="797" class="small-label">beryl</text>
  <text x="927" y="816" class="micro">Windows · C:\Users\Operator\p\berylorg\beryl · current</text>
  <rect x="1451" y="790" width="54" height="20" rx="10" fill="#151c2a" stroke="#344258"/>
  <text x="1478" y="804" text-anchor="middle" class="micro">CURRENT</text>

  <rect x="877" y="838" width="646" height="58" rx="7" class="row-selected"/>
  <circle cx="903" cy="867" r="12" class="icon-ring-selected"/>
  <path d="M894 863 h8 l3 4 h7 v9 h-18 Z" fill="none" stroke="#7dd3fc" stroke-width="1.3"/>
  <text x="927" y="863" class="small-label">Research</text>
  <text x="927" y="882" class="micro">Windows · D:\Research · selected</text>
  <text x="1501" y="873" text-anchor="end" class="accent-text">✓</text>

  <rect x="877" y="904" width="646" height="58" rx="7" class="row"/>
  <circle cx="903" cy="933" r="12" class="icon-ring"/>
  <path d="M894 929 h8 l3 4 h7 v9 h-18 Z" fill="none" stroke="#92a2b7" stroke-width="1.3"/>
  <text x="927" y="929" class="small-label">beryl · Linux</text>
  <text x="927" y="948" class="micro">Ubuntu 24.04 · ~/code/beryl</text>

  <text x="877" y="990" class="section-label">RUNTIMES &amp; ROOTS</text>
  <rect x="877" y="1004" width="646" height="54" rx="7" class="row"/>
  <circle cx="903" cy="1031" r="12" class="icon-ring-selected"/>
  <path d="M896 1024 h6 v6 h-6 Z M904 1024 h6 v6 h-6 Z M896 1032 h6 v6 h-6 Z M904 1032 h6 v6 h-6 Z" fill="#7dd3fc"/>
  <text x="927" y="1027" class="small-label">Windows</text>
  <text x="927" y="1046" class="micro">3 roots · ready</text>
  <text x="1357" y="1037" text-anchor="end" class="accent-text">Browse roots</text>
  <line x1="1377" y1="1015" x2="1377" y2="1047" class="divider"/>
  <text x="1399" y="1037" class="accent-text">＋ Add root</text>

  <rect x="877" y="1066" width="646" height="54" rx="7" class="row"/>
  <circle cx="903" cy="1093" r="12" class="icon-ring"/>
  <text x="903" y="1097" text-anchor="middle" class="accent-text">›_</text>
  <text x="927" y="1089" class="small-label">Ubuntu 24.04</text>
  <text x="927" y="1108" class="micro">2 roots · ready</text>
  <text x="1357" y="1099" text-anchor="end" class="accent-text">Browse roots</text>
  <line x1="1377" y1="1077" x2="1377" y2="1109" class="divider"/>
  <text x="1399" y="1099" class="accent-text">＋ Add root</text>

  <rect x="877" y="1128" width="196" height="36" rx="6" class="button"/>
  <text x="897" y="1151" class="accent-text">＋</text>
  <text x="919" y="1151" class="button-label">Add runtime</text>

  <line x1="851" y1="1188" x2="1549" y2="1188" class="divider"/>
  <rect x="1095" y="1212" width="210" height="46" rx="7" class="button-accent"/>
  <text x="1200" y="1241" text-anchor="middle" class="button-label">Confirm</text>

  <text x="851" y="1344" class="note-title">The one-click path stays one click</text>
  <text x="851" y="1370" class="note">The primary New Thread segment never opens this flyout. It creates or reuses</text>
  <text x="851" y="1390" class="note">an eligible empty thread at the selected thread’s existing runtime/root.</text>
  <text x="851" y="1428" class="note-title">The secondary path is deliberately explicit</text>
  <text x="851" y="1454" class="note">Rows only choose the pending target. The bottom section contains nothing except</text>
  <text x="851" y="1474" class="note">Confirm, which creates/reuses and activates a thread at that target.</text>
  <text x="851" y="1512" class="note-title">Browse roots</text>
  <text x="851" y="1538" class="note">It replaces Recent targets with a runtime’s exhaustive virtualized root list;</text>
  <text x="851" y="1558" class="note">Runtimes &amp; roots remains visible, and Back to recent restores the prior view.</text>
  <rect x="851" y="1580" width="196" height="26" rx="13" class="mode-new"/>
  <text x="949" y="1598" text-anchor="middle" fill="#bbf7d0" font-size="10" font-weight="650">CONFIRM COMMITS</text>

  <!-- Mode C: rebind current thread -->
  <rect x="1614" y="490" width="746" height="1160" rx="16" class="card"/>
  <rect x="1638" y="516" width="132" height="26" rx="13" class="mode-rebind"/>
  <text x="1704" y="534" text-anchor="middle" fill="#fde68a" font-size="10" font-weight="650">REBIND CURRENT</text>
  <text x="1638" y="566" class="card-title">Current-thread action menu</text>

  <rect x="1638" y="586" width="698" height="716" rx="10" class="flyout" filter="url(#shadow)"/>
  <text x="1664" y="625" class="flyout-title">Change runtime/root</text>
  <text x="1664" y="648" class="flyout-subtitle">Beryl redesign · changes future execution, not Syndic history.</text>
  <line x1="1638" y1="667" x2="2336" y2="667" class="divider"/>

  <rect x="1664" y="687" width="646" height="42" rx="7" class="field"/>
  <circle cx="1688" cy="707" r="8" fill="none" stroke="#7dd3fc" stroke-width="1.6"/>
  <line x1="1694" y1="713" x2="1701" y2="720" stroke="#7dd3fc" stroke-width="1.6"/>
  <text x="1714" y="713" class="muted">Search roots and runtimes…</text>
  <rect x="2239" y="696" width="53" height="24" rx="5" fill="#151c2a" stroke="#344258"/>
  <text x="2265.5" y="712" text-anchor="middle" class="micro">Ctrl F</text>

  <text x="1664" y="758" class="section-label">RECENT TARGETS</text>
  <rect x="1664" y="772" width="646" height="58" rx="7" class="row-open"/>
  <circle cx="1690" cy="801" r="12" class="icon-ring"/>
  <path d="M1681 797 h8 l3 4 h7 v9 h-18 Z" fill="none" stroke="#7f8ea3" stroke-width="1.3"/>
  <text x="1714" y="797" fill="#9aa7b8" font-size="13" font-weight="520">beryl</text>
  <text x="1714" y="816" class="micro">Windows · C:\Users\Operator\p\berylorg\beryl</text>
  <rect x="2238" y="790" width="54" height="20" rx="10" fill="#151c2a" stroke="#344258"/>
  <text x="2265" y="804" text-anchor="middle" class="micro">CURRENT</text>

  <rect x="1664" y="838" width="646" height="58" rx="7" class="row"/>
  <circle cx="1690" cy="867" r="12" class="icon-ring"/>
  <path d="M1681 863 h8 l3 4 h7 v9 h-18 Z" fill="none" stroke="#92a2b7" stroke-width="1.3"/>
  <text x="1714" y="863" class="small-label">Research</text>
  <text x="1714" y="882" class="micro">Windows · D:\Research</text>

  <rect x="1664" y="904" width="646" height="58" rx="7" class="row-selected"/>
  <circle cx="1690" cy="933" r="12" class="icon-ring-selected"/>
  <path d="M1681 929 h8 l3 4 h7 v9 h-18 Z" fill="none" stroke="#7dd3fc" stroke-width="1.3"/>
  <text x="1714" y="929" class="small-label">beryl · Linux</text>
  <text x="1714" y="948" class="micro">Ubuntu 24.04 · ~/code/beryl · selected</text>
  <text x="2288" y="939" text-anchor="end" class="accent-text">✓</text>

  <text x="1664" y="990" class="section-label">RUNTIMES &amp; ROOTS</text>
  <rect x="1664" y="1004" width="646" height="54" rx="7" class="row"/>
  <circle cx="1690" cy="1031" r="12" class="icon-ring-selected"/>
  <path d="M1683 1024 h6 v6 h-6 Z M1691 1024 h6 v6 h-6 Z M1683 1032 h6 v6 h-6 Z M1691 1032 h6 v6 h-6 Z" fill="#7dd3fc"/>
  <text x="1714" y="1027" class="small-label">Windows</text>
  <text x="1714" y="1046" class="micro">3 roots · ready</text>
  <text x="2144" y="1037" text-anchor="end" class="accent-text">Browse roots</text>
  <line x1="2164" y1="1015" x2="2164" y2="1047" class="divider"/>
  <text x="2186" y="1037" class="accent-text">＋ Add root</text>

  <rect x="1664" y="1066" width="646" height="54" rx="7" class="row"/>
  <circle cx="1690" cy="1093" r="12" class="icon-ring"/>
  <text x="1690" y="1097" text-anchor="middle" class="accent-text">›_</text>
  <text x="1714" y="1089" class="small-label">Ubuntu 24.04</text>
  <text x="1714" y="1108" class="micro">2 roots · ready</text>
  <text x="2144" y="1099" text-anchor="end" class="accent-text">Browse roots</text>
  <line x1="2164" y1="1077" x2="2164" y2="1109" class="divider"/>
  <text x="2186" y="1099" class="accent-text">＋ Add root</text>

  <rect x="1664" y="1128" width="196" height="36" rx="6" class="button"/>
  <text x="1684" y="1151" class="accent-text">＋</text>
  <text x="1706" y="1151" class="button-label">Add runtime</text>

  <line x1="1638" y1="1188" x2="2336" y2="1188" class="divider"/>
  <rect x="1882" y="1212" width="210" height="46" rx="7" class="button-accent"/>
  <text x="1987" y="1241" text-anchor="middle" class="button-label">Confirm</text>

  <text x="1638" y="1344" class="note-title">Same target picker, different consequence</text>
  <text x="1638" y="1370" class="note">The title and intent change, but root search, recent targets, runtime browsing,</text>
  <text x="1638" y="1390" class="note">Add root, Add runtime, selection, cancellation, and Confirm remain identical.</text>
  <text x="1638" y="1428" class="note-title">No silent rebinding</text>
  <text x="1638" y="1454" class="note">The current target is visibly marked and cannot masquerade as a change. Confirm</text>
  <text x="1638" y="1474" class="note">applies only the highlighted destination after availability gates succeed.</text>
  <text x="1638" y="1512" class="note-title">Why this is not in the toolbar</text>
  <text x="1638" y="1538" class="note">Rebinding is thread metadata maintenance, not ordinary navigation. Keeping it in</text>
  <text x="1638" y="1558" class="note">current-thread actions prevents a fourth persistent toolbar control.</text>
  <rect x="1638" y="1580" width="196" height="26" rx="13" class="mode-rebind"/>
  <text x="1736" y="1598" text-anchor="middle" fill="#fde68a" font-size="10" font-weight="650">CONFIRM COMMITS</text>

  <!-- Shared scoped-browse behavior -->
  <rect x="40" y="1680" width="2320" height="120" rx="14" class="flow-band"/>
  <text x="68" y="1714" class="card-kicker">SHARED SCOPED-BROWSE TRANSITION</text>
  <text x="68" y="1745" class="note-title">The flyout does not become a hierarchy-first selector.</text>
  <text x="68" y="1770" class="note">Recency remains the default; Browse roots temporarily replaces only the upper working set.</text>

  <rect x="580" y="1702" width="286" height="70" rx="8" class="row"/>
  <text x="600" y="1728" class="section-label">RECENT THREADS / TARGETS</text>
  <text x="600" y="1754" class="muted">Global recency or search results</text>
  <text x="890" y="1744" fill="#7dd3fc" font-size="24">→</text>
  <rect x="934" y="1702" width="486" height="70" rx="8" class="row-selected"/>
  <text x="954" y="1728" class="accent-text">‹ Back to recent</text>
  <text x="1082" y="1728" class="section-label">WINDOWS ROOTS</text>
  <text x="954" y="1754" class="muted">Exhaustive fixed-row virtualized list</text>
  <text x="1444" y="1744" fill="#7dd3fc" font-size="24">＋</text>
  <rect x="1488" y="1702" width="392" height="70" rx="8" class="row"/>
  <text x="1508" y="1728" class="section-label">RUNTIMES &amp; ROOTS</text>
  <text x="1508" y="1754" class="muted">Persistent below the working set</text>
  <rect x="1910" y="1702" width="422" height="70" rx="8" fill="#0c1422" stroke="#2d3a52"/>
  <text x="1930" y="1728" class="small-label">After choosing a root</text>
  <text x="1930" y="1752" class="micro">Open mode → show its threads</text>
  <text x="1930" y="1770" class="micro">New / rebind mode → select it for Confirm</text>

  <text x="2352" y="1822" text-anchor="end" class="micro">Mockup only · 2026-07-10</text>
</svg>
